<svg width="796" height="774" viewBox="0 0 796 774" fill="none" xmlns="http://www.w3.org/2000/svg">
<g filter="url(#filter0_f_568_2466)">
<path fill-rule="evenodd" clip-rule="evenodd" d="M396.929 201.013C478.414 200.239 562.83 234.708 588.064 312.18C613.339 389.779 564.674 466.287 499.21 515.03C430.696 566.043 339.723 598.296 269.923 549.058C197.837 498.207 186.41 398.571 216.648 315.706C243.639 241.74 318.186 201.76 396.929 201.013Z" fill="url(#paint0_linear_568_2466)"/>
<path fill-rule="evenodd" clip-rule="evenodd" d="M396.929 201.013C478.414 200.239 562.83 234.708 588.064 312.18C613.339 389.779 564.674 466.287 499.21 515.03C430.696 566.043 339.723 598.296 269.923 549.058C197.837 498.207 186.41 398.571 216.648 315.706C243.639 241.74 318.186 201.76 396.929 201.013Z" fill="#1335F5"/>
</g>
<defs>
<filter id="filter0_f_568_2466" x="0.731186" y="0.731186" width="794.399" height="773.038" filterUnits="userSpaceOnUse" color-interpolation-filters="sRGB">
<feFlood flood-opacity="0" result="BackgroundImageFix"/>
<feBlend mode="normal" in="SourceGraphic" in2="BackgroundImageFix" result="shape"/>
<feGaussianBlur stdDeviation="100.134" result="effect1_foregroundBlur_568_2466"/>
</filter>
<linearGradient id="paint0_linear_568_2466" x1="201" y1="573.5" x2="632.664" y2="384.613" gradientUnits="userSpaceOnUse">
<stop stop-color="#6CACE4"/>
<stop offset="0.0666667" stop-color="#6CACE4"/>
<stop offset="0.133333" stop-color="#6DADE4"/>
<stop offset="0.2" stop-color="#6FAEE5"/>
<stop offset="0.266667" stop-color="#72B0E5"/>
<stop offset="0.333333" stop-color="#75B3E6"/>
<stop offset="0.4" stop-color="#79B6E7"/>
<stop offset="0.466667" stop-color="#7DB9E8"/>
<stop offset="0.533333" stop-color="#82BDEA"/>
<stop offset="0.6" stop-color="#86C0EB"/>
<stop offset="0.666667" stop-color="#8AC3EC"/>
<stop offset="0.733333" stop-color="#8DC6ED"/>
<stop offset="0.8" stop-color="#90C8ED"/>
<stop offset="0.866667" stop-color="#92C9EE"/>
<stop offset="0.933333" stop-color="#93CAEE"/>
<stop offset="1" stop-color="#93CAEE"/>
</linearGradient>
</defs>
</svg>
