<svg width="172" height="78" viewBox="0 0 172 78" fill="none" xmlns="http://www.w3.org/2000/svg">
<path d="M124.446 18.1156C123.113 18.888 122.053 19.9786 121.281 21.3873C120.508 22.7959 120.129 24.3712 120.099 26.1434C120.099 27.9155 120.493 29.4908 121.265 30.8843C122.038 32.2778 123.083 33.3532 124.431 34.1409C125.764 34.9285 127.264 35.3223 128.915 35.3223C130.914 35.3223 132.641 34.8376 134.08 33.8985C135.534 32.9443 136.579 31.6265 137.23 29.8998H135.11C134.595 31.0964 133.807 32.0355 132.747 32.7171C131.686 33.3987 130.414 33.7319 128.915 33.7319C127.582 33.7319 126.4 33.429 125.34 32.808C124.28 32.1869 123.462 31.3084 122.856 30.1573C122.25 29.0061 121.947 27.658 121.947 26.1282C121.947 24.5984 122.25 23.2655 122.856 22.0992C123.447 20.948 124.28 20.0543 125.34 19.4333C126.4 18.8123 127.597 18.5094 128.915 18.5094C130.414 18.5094 131.686 18.8577 132.747 19.5394C133.807 20.221 134.595 21.1752 135.11 22.4021H137.23C136.579 20.6754 135.534 19.3273 134.095 18.373C132.671 17.4188 130.944 16.9341 128.93 16.9341C127.279 16.9341 125.794 17.3279 124.446 18.1156Z" fill="white"/>
<path d="M25.0681 18.6457V17.1461H15.3287V35.1708H17.1311V26.8704H23.8412V25.3709H17.1311V18.6457H25.0681Z" fill="white"/>
<path d="M36.8068 35.1708V17.1461H35.0044V35.1708H36.8068Z" fill="white"/>
<path d="M61.4507 35.1708H59.6482L49.6665 20.0089V35.1708H47.864V17.1461H49.6665L59.6482 32.2778V17.1461H61.4507V35.1708Z" fill="white"/>
<path fill-rule="evenodd" clip-rule="evenodd" d="M74.7647 30.8843H82.9591L84.5344 35.1709H86.4429L79.8995 17.3734H77.8547L71.2809 35.1709H73.1894L74.7647 30.8843ZM78.8695 19.6454L82.4138 29.4H75.31L78.8695 19.6454Z" fill="white"/>
<path d="M109.89 35.1708H108.088L98.1059 20.0089V35.1708H96.2883V17.1461H98.1059L108.088 32.2778V17.1461H109.89V35.1708Z" fill="white"/>
<path d="M149.605 18.6154V25.3406H156.436V26.8401H149.605V33.6713H157.209V35.1709H147.787V17.1159H157.194V18.6154H149.605Z" fill="white"/>
<path d="M35.1407 60.7085V42.4414H31.0207L25.2044 56.0281L19.388 42.4414H15.2226V60.7085H18.8882V48.8334L23.8109 60.7085H26.5827L31.4752 48.8334V60.7085H35.1407Z" fill="white"/>
<path fill-rule="evenodd" clip-rule="evenodd" d="M49.9542 57.2246H42.6838L41.4872 60.7084H37.6399L44.2136 42.4111H48.485L55.0284 60.7084H51.1508L49.9542 57.2246ZM46.3039 46.6522L48.9493 54.2862H43.6532L46.3039 46.6522Z" fill="white"/>
<path d="M68.4788 46.1827C69.2058 46.5916 69.7814 47.1672 70.2055 47.9397V47.9245H74.4012C73.8256 46.1069 72.7805 44.6983 71.2658 43.6986C69.7511 42.6989 67.9638 42.199 65.9038 42.199C64.1468 42.199 62.5715 42.608 61.1477 43.3956C59.7239 44.1833 58.6182 45.289 57.8003 46.7128C56.9975 48.1366 56.5885 49.7421 56.5885 51.5446C56.5885 53.3471 56.9824 54.9526 57.8003 56.3613C58.6031 57.7851 59.7239 58.8908 61.1477 59.6785C62.5715 60.4812 64.1619 60.8751 65.919 60.8751C67.4942 60.8751 68.918 60.5418 70.1752 59.8905C71.4475 59.2392 72.4775 58.3607 73.2803 57.2853C74.0831 56.2098 74.6132 55.0284 74.8556 53.7561V50.5601H64.9647V53.3319H71.2506C70.9629 54.6649 70.3873 55.6948 69.4936 56.437C68.6151 57.1792 67.4639 57.5428 66.0704 57.5428C64.9344 57.5428 63.9347 57.3004 63.0865 56.8157C62.2383 56.331 61.5718 55.6343 61.0871 54.7255C60.6024 53.8166 60.3601 52.7564 60.3601 51.5295C60.3601 50.348 60.6024 49.3029 61.072 48.3941C61.5567 47.4853 62.208 46.7885 63.0411 46.3038C63.8741 45.8191 64.8435 45.5768 65.919 45.5768C66.8884 45.5768 67.7517 45.7888 68.4788 46.1827Z" fill="white"/>
<path d="M93.1983 60.7084H89.5328L81.2324 48.1669V60.7084H77.5668V42.4111H81.2324L89.5328 54.9678V42.4111H93.1983V60.7084Z" fill="white"/>
<path fill-rule="evenodd" clip-rule="evenodd" d="M100.741 57.2246H108.012L109.209 60.7084H113.086L106.543 42.4111H102.271L95.6976 60.7084H99.5449L100.741 57.2246ZM104.392 46.6673L107.027 54.3013H101.741L104.392 46.6673Z" fill="white"/>
<path d="M127.991 42.4414V45.3951H123.128V60.7085H119.463V45.3951H114.601V42.4414H127.991Z" fill="white"/>
<path d="M134.322 49.9693V45.395H141.259V42.4111H130.656V60.7084H141.259V57.7245H134.322V52.8775H140.472V49.9693H134.322Z" fill="white"/>
<path d="M147.439 60.2389C146.424 59.7996 145.606 59.1786 145.016 58.3607C144.425 57.5428 144.122 56.5734 144.107 55.4525H148.03C148.075 56.2098 148.348 56.8006 148.833 57.2247C149.317 57.6639 149.969 57.876 150.802 57.876C151.65 57.876 152.331 57.6639 152.816 57.255C153.301 56.846 153.543 56.3159 153.543 55.6494C153.543 55.1041 153.377 54.6649 153.043 54.3165C152.71 53.9681 152.301 53.6955 151.801 53.4986C151.301 53.3017 150.62 53.0745 149.741 52.8321C148.56 52.4837 147.591 52.1354 146.848 51.8021C146.106 51.4689 145.47 50.9539 144.94 50.2572C144.41 49.5755 144.137 48.6516 144.137 47.5004C144.137 46.425 144.41 45.4708 144.955 44.668C145.5 43.8652 146.258 43.2442 147.227 42.8201C148.196 42.396 149.317 42.1839 150.574 42.1839C152.453 42.1839 153.982 42.6383 155.164 43.5623C156.345 44.4711 156.997 45.7586 157.118 47.3944H153.089C153.059 46.7734 152.786 46.2432 152.286 45.8343C151.786 45.4253 151.135 45.2133 150.317 45.2133C149.605 45.2133 149.029 45.395 148.605 45.7585C148.181 46.1221 147.969 46.6522 147.969 47.349C147.969 47.8337 148.136 48.2426 148.454 48.5607C148.772 48.8788 149.181 49.1514 149.65 49.3483C150.135 49.5452 150.802 49.7725 151.68 50.0451C152.862 50.3935 153.831 50.7418 154.588 51.0902C155.346 51.4386 155.982 51.9687 156.527 52.6655C157.072 53.3622 157.345 54.2862 157.345 55.4071C157.345 56.3916 157.088 57.2853 156.588 58.1335C156.088 58.9666 155.346 59.633 154.361 60.1329C153.392 60.6327 152.225 60.8751 150.877 60.8751C149.605 60.8902 148.454 60.6782 147.439 60.2389Z" fill="white"/>
<path fill-rule="evenodd" clip-rule="evenodd" d="M0 77.8394V0H172V77.8394H0ZM168.234 74.0376V3.7867H3.7867V74.0376H168.234Z" fill="white"/>
</svg>
