<svg width="195" height="33" viewBox="0 0 195 33" fill="none" xmlns="http://www.w3.org/2000/svg">
<path d="M28.4655 8.39722C26.7454 8.39722 25.1931 9.08726 24.0534 10.2095C22.9206 9.09423 21.3613 8.39722 19.6482 8.39722C17.9351 8.39722 16.3619 9.08726 15.2291 10.2095C14.0964 9.08726 12.5441 8.39722 10.817 8.39722H8.18094V7.26108C8.18094 5.19791 9.28572 4.23603 10.7331 4.23603C11.5932 4.23603 12.4252 4.54272 13.3202 5.12821L14.8725 1.99861C13.4951 1.10643 11.9428 0.625488 10.4604 0.625488C7.04819 0.632458 3.97859 2.73048 3.97859 7.26805V8.40419H0V12.0844H3.97859V25.1047H8.18094V12.0844H10.817C12.2364 12.0844 13.3832 13.2345 13.3832 14.6425V25.0977H17.0681V14.6425C17.0681 13.2275 18.2218 12.0844 19.6412 12.0844C21.0607 12.0844 22.1305 13.1578 22.2074 14.5031C22.2074 14.5519 22.2074 14.6007 22.2074 14.6494V25.1047H25.8923V14.7192C25.8923 14.7192 25.8923 14.6704 25.8923 14.6494C25.8923 14.6285 25.8923 14.6007 25.8923 14.5797C25.8923 14.5658 25.8923 14.5588 25.8923 14.5449C25.9413 13.1787 27.067 12.0844 28.4585 12.0844C29.8499 12.0844 31.0246 13.2345 31.0246 14.6425V25.0977H34.7165V14.6425C34.7165 11.1992 31.9127 8.40419 28.4585 8.40419L28.4655 8.39722Z" fill="white"/>
<path d="M38.3247 2.61907C38.3247 2.13812 38.4785 1.73386 38.7862 1.40626C39.0939 1.07866 39.4854 0.911377 39.9679 0.911377C40.4504 0.911377 40.8489 1.07866 41.1636 1.40626C41.4852 1.73386 41.646 2.13812 41.646 2.61907C41.646 3.10001 41.4852 3.49034 41.1636 3.79702C40.8419 4.10371 40.4434 4.25705 39.9679 4.25705C39.4924 4.25705 39.0939 4.10371 38.7862 3.79702C38.4785 3.49034 38.3247 3.10001 38.3247 2.61907ZM40.793 8.76675V25.1606H39.2197V8.76675H40.793Z" fill="white"/>
<path d="M69.9434 10.0629H66.6221V25.1603H65.0489V10.0629H61.7275V8.7665H65.0489V3.57373H66.6221V8.7665H69.9434V10.0629Z" fill="white"/>
<path d="M86.7319 17.9534H72.7544C72.9152 19.9608 73.5515 21.4872 74.6703 22.5467C75.789 23.6062 77.2084 24.1359 78.9215 24.1359C80.292 24.1359 81.4597 23.8153 82.4317 23.181C83.4036 22.5467 84.1378 21.6406 84.6412 20.4835L86.0117 21.0969C85.3055 22.5328 84.3266 23.6341 83.0819 24.4077C81.8373 25.1814 80.4179 25.5718 78.8167 25.5718C77.649 25.5718 76.5931 25.3696 75.6492 24.9584C74.7052 24.5471 73.8941 23.9756 73.2229 23.2368C72.5516 22.4979 72.0412 21.6057 71.6776 20.5532C71.321 19.5077 71.1392 18.3437 71.1392 17.0682C71.1392 15.7926 71.321 14.6565 71.6846 13.5831C72.0482 12.5097 72.5726 11.5896 73.2438 10.8159C73.9151 10.0422 74.7402 9.43584 75.7121 9.00369C76.684 8.57154 77.7748 8.35547 78.9845 8.35547C80.1941 8.35547 81.208 8.5576 82.152 8.9549C83.0959 9.3522 83.907 9.93072 84.5853 10.6765C85.2565 11.4293 85.7809 12.3354 86.1585 13.3949C86.5361 14.4544 86.7249 15.6323 86.7249 16.9288V17.9534H86.7319ZM85.0887 16.6221C85.0188 14.4125 84.4314 12.7258 83.3197 11.5478C82.2079 10.3768 80.7465 9.79132 78.9425 9.79132C77.1385 9.79132 75.6701 10.3977 74.5444 11.6036C73.4256 12.8094 72.8173 14.4822 72.7264 16.6221H85.0957H85.0887Z" fill="white"/>
<path d="M90.333 0.5H91.9063V25.1604H90.333V0.5Z" fill="white"/>
<path d="M96.8779 0.5H98.4512V25.1604H96.8779V0.5Z" fill="white"/>
<path d="M102.562 2.61907C102.562 2.13812 102.716 1.73386 103.024 1.40626C103.332 1.07866 103.723 0.911377 104.206 0.911377C104.688 0.911377 105.087 1.07866 105.401 1.40626C105.723 1.73386 105.884 2.13812 105.884 2.61907C105.884 3.10001 105.723 3.49034 105.401 3.79702C105.08 4.10371 104.681 4.25705 104.206 4.25705C103.73 4.25705 103.332 4.10371 103.024 3.79702C102.716 3.49034 102.562 3.10001 102.562 2.61907ZM105.031 8.76675V25.1606H103.458V8.76675H105.031Z" fill="white"/>
<path d="M124.183 27.7532C124.183 30.9177 121.512 32.4999 116.162 32.4999C114.149 32.4999 112.359 32.2002 110.785 31.6147C109.233 31.0222 108.457 29.8722 108.457 28.1645C108.457 27.3699 108.681 26.631 109.128 25.9619C109.576 25.2928 110.163 24.7839 110.89 24.4424C110.387 24.2403 109.995 23.9336 109.709 23.5363C109.422 23.139 109.282 22.679 109.282 22.1562C109.282 21.494 109.471 20.9225 109.848 20.4346C110.226 19.9467 110.778 19.633 111.513 19.4936C110.778 18.922 110.219 18.232 109.835 17.4095C109.443 16.587 109.254 15.6879 109.254 14.7121C109.254 13.8269 109.422 12.9904 109.751 12.2167C110.079 11.4431 110.548 10.7739 111.156 10.2024C111.764 9.63082 112.478 9.18473 113.296 8.85016C114.121 8.52256 115.023 8.35528 116.002 8.35528C117.512 8.35528 118.799 8.71076 119.875 9.41475C120.603 8.13921 121.896 7.56068 123.749 7.67221V9.27534C123.679 9.25443 123.511 9.24049 123.232 9.24049C122.246 9.24049 121.47 9.56112 120.903 10.1954C121.498 10.767 121.959 11.4361 122.288 12.2098C122.616 12.9835 122.784 13.8129 122.784 14.7051C122.784 15.5973 122.616 16.4198 122.288 17.1795C121.959 17.9392 121.491 18.6014 120.882 19.159C120.274 19.7166 119.561 20.1558 118.743 20.4764C117.918 20.797 117.016 20.9573 116.037 20.9573C114.897 20.9573 113.806 20.7273 112.778 20.2743C111.408 20.2952 110.723 20.8179 110.723 21.8425C110.723 22.2956 110.862 22.665 111.149 22.9508C111.436 23.2366 111.911 23.376 112.568 23.376H118.938C120.582 23.376 121.868 23.7663 122.791 24.54C123.714 25.3137 124.176 26.3871 124.176 27.7532H124.183ZM122.609 27.7393C122.609 26.8332 122.295 26.1222 121.665 25.5995C121.036 25.0767 120.127 24.8188 118.938 24.8188H113.317C112.198 24.8397 111.345 25.1464 110.764 25.7389C110.184 26.3244 109.89 27.0423 109.89 27.8787C109.89 29.1891 110.506 30.0534 111.743 30.4577C112.981 30.8619 114.428 31.071 116.093 31.071C118.148 31.071 119.75 30.841 120.889 30.374C122.029 29.907 122.602 29.0288 122.602 27.7393H122.609ZM115.96 19.5912C117.624 19.5912 118.931 19.1311 119.868 18.2111C120.805 17.291 121.274 16.134 121.274 14.7469C121.274 14.0151 121.148 13.3529 120.896 12.7465C120.645 12.1401 120.288 11.6173 119.833 11.1573C119.379 10.7042 118.827 10.3487 118.19 10.0978C117.547 9.8469 116.834 9.72143 116.03 9.72143C115.226 9.72143 114.505 9.8469 113.855 10.0978C113.205 10.3487 112.652 10.7042 112.191 11.1573C111.736 11.6103 111.38 12.1401 111.128 12.7465C110.876 13.3529 110.75 14.0151 110.75 14.7469C110.75 16.1828 111.219 17.3468 112.156 18.2459C113.093 19.1451 114.358 19.5981 115.96 19.5981V19.5912Z" fill="white"/>
<path d="M141.146 17.9534H127.168C127.329 19.9608 127.966 21.4872 129.084 22.5467C130.203 23.6062 131.623 24.1359 133.336 24.1359C134.706 24.1359 135.874 23.8153 136.846 23.181C137.818 22.5467 138.552 21.6406 139.055 20.4835L140.426 21.0969C139.72 22.5328 138.741 23.6341 137.496 24.4077C136.251 25.1814 134.832 25.5718 133.231 25.5718C132.063 25.5718 131.007 25.3696 130.063 24.9584C129.119 24.5471 128.308 23.9756 127.637 23.2368C126.966 22.4979 126.455 21.6057 126.092 20.5532C125.735 19.5077 125.553 18.3437 125.553 17.0682C125.553 15.7926 125.735 14.6565 126.099 13.5831C126.462 12.5097 126.987 11.5896 127.658 10.8159C128.329 10.0422 129.154 9.43584 130.126 9.00369C131.098 8.57154 132.189 8.35547 133.399 8.35547C134.608 8.35547 135.622 8.5576 136.566 8.9549C137.51 9.3522 138.321 9.93072 138.999 10.6765C139.671 11.4293 140.195 12.3354 140.573 13.3949C140.95 14.4544 141.139 15.6323 141.139 16.9288V17.9534H141.146ZM139.496 16.6221C139.426 14.4125 138.839 12.7258 137.727 11.5478C136.615 10.3768 135.154 9.79132 133.35 9.79132C131.546 9.79132 130.077 10.3977 128.951 11.6036C127.833 12.8094 127.224 14.4822 127.133 16.6221H139.503H139.496Z" fill="white"/>
<path d="M169.716 8.35525C171.45 8.35525 172.94 8.76649 174.184 9.582C175.429 10.4045 176.359 11.5267 176.974 12.9625L175.499 13.5759C175.044 12.391 174.296 11.4639 173.254 10.7948C172.212 10.1257 171.01 9.78413 169.639 9.78413C168.681 9.78413 167.814 9.95142 167.038 10.293C166.262 10.6345 165.584 11.1224 165.017 11.7567C164.451 12.391 164.004 13.1507 163.696 14.0429C163.388 14.9281 163.234 15.9039 163.234 16.9704C163.234 18.0368 163.388 19.0126 163.696 19.8978C164.004 20.783 164.444 21.5358 165.017 22.1631C165.591 22.7905 166.262 23.2714 167.038 23.6129C167.814 23.9545 168.681 24.1218 169.639 24.1218C170.961 24.1218 172.143 23.7942 173.184 23.132C174.226 22.4698 174.995 21.5498 175.499 20.3648L176.974 20.9782C176.268 22.4838 175.275 23.6199 174.009 24.3936C172.744 25.1673 171.282 25.5576 169.639 25.5576C168.43 25.5576 167.332 25.3485 166.353 24.9233C165.367 24.5051 164.528 23.9126 163.822 23.1668C163.116 22.4141 162.577 21.5079 162.214 20.4485C161.85 19.389 161.661 18.225 161.661 16.9495C161.661 15.6739 161.85 14.5099 162.235 13.4504C162.612 12.391 163.15 11.4849 163.843 10.7321C164.535 9.9793 165.381 9.3938 166.374 8.97559C167.367 8.55738 168.479 8.34131 169.716 8.34131V8.35525Z" fill="white"/>
<path d="M195 17.9534H181.022C181.183 19.9608 181.82 21.4872 182.938 22.5467C184.057 23.6062 185.477 24.1359 187.19 24.1359C188.56 24.1359 189.728 23.8153 190.7 23.181C191.672 22.5467 192.406 21.6406 192.909 20.4835L194.28 21.0969C193.574 22.5328 192.595 23.6341 191.35 24.4077C190.105 25.1814 188.686 25.5718 187.085 25.5718C185.917 25.5718 184.861 25.3696 183.917 24.9584C182.973 24.5471 182.162 23.9756 181.491 23.2368C180.82 22.4979 180.309 21.6057 179.946 20.5532C179.589 19.5077 179.407 18.3437 179.407 17.0682C179.407 15.7926 179.589 14.6565 179.953 13.5831C180.316 12.5097 180.841 11.5896 181.512 10.8159C182.183 10.0422 183.008 9.43584 183.98 9.00369C184.952 8.57154 186.043 8.35547 187.253 8.35547C188.462 8.35547 189.476 8.5576 190.42 8.9549C191.364 9.3522 192.175 9.93072 192.853 10.6765C193.525 11.4293 194.049 12.3354 194.427 13.3949C194.804 14.4544 194.993 15.6323 194.993 16.9288V17.9534H195ZM193.357 16.6221C193.287 14.4125 192.7 12.7258 191.588 11.5478C190.476 10.3768 189.015 9.79132 187.211 9.79132C185.407 9.79132 183.938 10.3977 182.812 11.6036C181.694 12.8094 181.085 14.4822 180.994 16.6221H193.364H193.357Z" fill="white"/>
<path d="M52.5817 9.8192C55.4276 9.8192 57.742 12.1821 57.742 15.0956V25.1605H59.4551V14.9632C59.3152 11.2551 56.2946 8.35547 52.5747 8.35547C48.8548 8.35547 45.8272 11.262 45.6943 14.9701V15.0956V25.1536H47.4214V15.0886C47.4214 12.1821 49.7359 9.81223 52.5817 9.81223V9.8192Z" fill="white"/>
<path d="M151.578 9.8192C154.424 9.8192 156.739 12.1821 156.739 15.0956V25.1605H158.452V14.9632C158.312 11.2551 155.291 8.35547 151.571 8.35547C147.851 8.35547 144.824 11.262 144.691 14.9701V15.0956V25.1536H146.418V15.0886C146.418 12.1821 148.732 9.81223 151.578 9.81223V9.8192Z" fill="white"/>
</svg>
