<svg width="195" height="32" viewBox="0 0 195 32" fill="none" xmlns="http://www.w3.org/2000/svg">
<g clip-path="url(#clip0_10002_634)">
<path d="M28.1244 8.49602C26.4249 8.49602 24.8912 9.17995 23.7651 10.2922C22.6459 9.18686 21.1054 8.49602 19.4128 8.49602C17.7202 8.49602 16.1658 9.17995 15.0466 10.2922C13.9275 9.17995 12.3938 8.49602 10.6874 8.49602H8.0829V7.36994C8.0829 5.32503 9.17444 4.37166 10.6045 4.37166C11.4542 4.37166 12.2763 4.67564 13.1606 5.25595L14.6943 2.15405C13.3333 1.27667 11.7997 0.799988 10.3351 0.799988C6.96373 0.799988 3.93092 2.87944 3.93092 7.36994V8.49602H0V12.1437H3.93092V25.0487H8.0829V12.1437H10.6874C12.0898 12.1437 13.2228 13.2836 13.2228 14.6791V25.0418H16.8636V14.6791C16.8636 13.2767 18.0035 12.1437 19.4059 12.1437C20.8083 12.1437 21.8653 13.2076 21.9413 14.5409C21.9413 14.5893 21.9413 14.6376 21.9413 14.686V25.0487H25.582V14.7551C25.582 14.7551 25.582 14.7067 25.582 14.686C25.582 14.6653 25.582 14.6376 25.582 14.6169C25.582 14.6031 25.582 14.5962 25.582 14.5824C25.6304 13.2283 26.7427 12.1437 28.1174 12.1437C29.4922 12.1437 30.6528 13.2836 30.6528 14.6791V25.0418H34.3005V14.6791C34.3005 11.2663 31.5302 8.49602 28.1174 8.49602H28.1244Z" fill="white"/>
<path d="M37.4785 3.15582C37.4785 2.58242 37.672 2.09192 38.0588 1.69814C38.4457 1.29744 38.9293 1.10401 39.5027 1.10401C40.0761 1.10401 40.5666 1.30435 40.9604 1.69814C41.3542 2.09192 41.5545 2.58242 41.5545 3.15582C41.5545 3.72922 41.3542 4.21282 40.9604 4.59969C40.5597 4.98656 40.0761 5.18 39.5027 5.18C38.9293 5.18 38.4457 4.98656 38.0588 4.59969C37.672 4.21282 37.4785 3.72922 37.4785 3.15582ZM40.8913 8.95893V25.1109H38.1417V8.95893H40.8913Z" fill="white"/>
<path d="M70.2039 11.2111H67.0191V25.104H64.3317V11.2111H61.1469V8.95895H64.3317V3.88814H67.0191V8.95895H70.2039V11.2111Z" fill="white"/>
<path d="M86.7842 18.2439H73.7548C73.8861 19.8605 74.4318 21.0764 75.399 21.9054C76.3593 22.7344 77.5476 23.1489 78.9638 23.1489C80.1106 23.1489 81.1054 22.8795 81.9344 22.3337C82.7635 21.7879 83.399 21.0487 83.8412 20.0954L86.1279 21.0556C85.4854 22.4719 84.5389 23.5634 83.2747 24.3372C82.0104 25.1109 80.5527 25.4978 78.8947 25.4978C77.7479 25.4978 76.6909 25.2974 75.7306 24.9037C74.7704 24.503 73.9482 23.9365 73.2574 23.1973C72.5735 22.4581 72.0415 21.5669 71.6685 20.5306C71.2954 19.4943 71.102 18.3406 71.102 17.0833C71.102 15.8259 71.2885 14.6999 71.6685 13.6498C72.0415 12.5997 72.5735 11.6947 73.2574 10.9278C73.9413 10.1679 74.7704 9.57378 75.7444 9.15236C76.7185 8.73094 77.8032 8.52369 78.9914 8.52369C80.1797 8.52369 81.2229 8.72403 82.1762 9.11782C83.1296 9.51851 83.9448 10.085 84.6287 10.8242C85.3127 11.5634 85.8446 12.4615 86.2177 13.5116C86.5907 14.5617 86.7842 15.7292 86.7842 17.0073V18.2439ZM83.9655 16.2197C83.8964 14.4719 83.4198 13.1385 82.5217 12.2266C81.6236 11.3078 80.4353 10.8518 78.9569 10.8518C77.4785 10.8518 76.2695 11.3147 75.3438 12.2474C74.418 13.1731 73.8861 14.4995 73.7548 16.2266H83.9655V16.2197Z" fill="white"/>
<path d="M89.7066 0.800076H92.4561V25.104H89.7066V0.800076Z" fill="white"/>
<path d="M96.4008 0.800076H99.1504V25.104H96.4008V0.800076Z" fill="white"/>
<path d="M102.57 3.15582C102.57 2.58242 102.763 2.09192 103.15 1.69814C103.537 1.29744 104.014 1.10401 104.594 1.10401C105.175 1.10401 105.658 1.30435 106.052 1.69814C106.453 2.09883 106.646 2.58242 106.646 3.15582C106.646 3.72922 106.446 4.21282 106.052 4.59969C105.651 4.98656 105.168 5.18 104.594 5.18C104.021 5.18 103.537 4.98656 103.15 4.59969C102.763 4.21282 102.57 3.72922 102.57 3.15582ZM105.983 8.95893V25.1109H103.233V8.95893H105.983Z" fill="white"/>
<path d="M124.753 27.8606C124.753 29.6292 123.979 30.8865 122.432 31.6395C120.843 32.4133 118.819 32.8002 116.366 32.8002C114.176 32.8002 112.318 32.4824 110.798 31.8399C109.32 31.2181 108.573 30.1266 108.573 28.5584C108.573 27.7846 108.781 27.0869 109.188 26.472C109.596 25.8502 110.169 25.3874 110.895 25.0765C110.411 24.814 110.024 24.4547 109.734 23.9988C109.444 23.5428 109.306 23.0316 109.306 22.4582C109.306 21.8157 109.478 21.2077 109.838 20.6343C110.19 20.0609 110.757 19.6603 111.53 19.4392C110.183 18.2233 109.506 16.6965 109.506 14.8658C109.506 13.94 109.679 13.0834 110.017 12.3096C110.356 11.5359 110.833 10.8658 111.44 10.3062C112.048 9.7397 112.781 9.30447 113.644 8.99359C114.508 8.68271 115.454 8.53072 116.497 8.53072C117.893 8.53072 119.15 8.82778 120.276 9.42882C120.629 8.80706 121.126 8.32347 121.769 7.97113C122.411 7.6188 123.15 7.43918 123.993 7.43918L124.491 7.47373V9.82951C124.421 9.80879 124.249 9.79497 123.959 9.79497C123.074 9.79497 122.356 10.0713 121.803 10.624C122.888 11.7708 123.427 13.187 123.427 14.8658C123.427 15.7915 123.261 16.6413 122.929 17.4012C122.598 18.1611 122.128 18.8243 121.52 19.377C120.912 19.9297 120.18 20.358 119.33 20.6689C118.48 20.9798 117.534 21.1318 116.497 21.1318C115.461 21.1318 114.377 20.9452 113.382 20.5653C112.808 20.5653 112.373 20.6896 112.069 20.9452C111.772 21.2008 111.62 21.5394 111.62 21.9539C111.62 22.3269 111.758 22.6516 112.035 22.9141C112.311 23.1767 112.76 23.3148 113.375 23.3148H119.344C121.071 23.3148 122.397 23.7224 123.337 24.5445C124.276 25.3666 124.746 26.4651 124.746 27.8606H124.753ZM122.066 27.8951C122.066 27.1421 121.796 26.5756 121.25 26.1888C120.712 25.8019 119.965 25.6084 119.012 25.6084H112.974C112.29 25.7397 111.779 26.0229 111.447 26.4513C111.116 26.8796 110.95 27.377 110.95 27.9297C110.95 28.4824 111.081 28.89 111.351 29.2216C111.62 29.5532 111.993 29.8157 112.477 30.0022C112.96 30.1888 113.541 30.32 114.218 30.3822C114.895 30.4513 115.641 30.4789 116.456 30.4789C118.266 30.4789 119.655 30.2993 120.615 29.947C121.575 29.5946 122.059 28.9107 122.059 27.8882L122.066 27.8951ZM112.152 14.8934C112.152 16.0402 112.532 17.0005 113.299 17.7604C114.059 18.5204 115.109 18.9072 116.435 18.9072C117.762 18.9072 118.846 18.5273 119.62 17.7604C120.394 17.0005 120.781 16.0402 120.781 14.8934C120.781 13.7466 120.394 12.7103 119.62 11.9228C118.846 11.1352 117.796 10.7483 116.47 10.7483C115.143 10.7483 114.093 11.1421 113.32 11.9228C112.546 12.7103 112.159 13.6982 112.159 14.8934H112.152Z" fill="white"/>
<path d="M141.465 18.2439H128.435C128.567 19.8605 129.112 21.0764 130.08 21.9054C131.04 22.7344 132.228 23.1489 133.644 23.1489C134.791 23.1489 135.786 22.8795 136.615 22.3337C137.444 21.7879 138.08 21.0487 138.522 20.0954L140.808 21.0556C140.166 22.4719 139.219 23.5634 137.955 24.3372C136.691 25.1109 135.233 25.4978 133.575 25.4978C132.428 25.4978 131.371 25.2974 130.411 24.9037C129.451 24.503 128.629 23.9365 127.938 23.1973C127.254 22.4581 126.722 21.5669 126.349 20.5306C125.976 19.4943 125.783 18.3406 125.783 17.0833C125.783 15.8259 125.969 14.6999 126.349 13.6498C126.722 12.5997 127.254 11.6947 127.938 10.9278C128.622 10.1679 129.451 9.57378 130.425 9.15236C131.399 8.73094 132.484 8.52369 133.672 8.52369C134.86 8.52369 135.903 8.72403 136.857 9.11782C137.81 9.51851 138.625 10.085 139.309 10.8242C139.993 11.5634 140.525 12.4615 140.898 13.5116C141.271 14.5617 141.465 15.7292 141.465 17.0073V18.2439ZM138.646 16.2197C138.577 14.4719 138.1 13.1385 137.202 12.2266C136.304 11.3078 135.116 10.8518 133.637 10.8518C132.159 10.8518 130.95 11.3147 130.024 12.2474C129.099 13.1731 128.567 14.4995 128.435 16.2266H138.646V16.2197Z" fill="white"/>
<path d="M169.423 8.52369C171.213 8.52369 172.746 8.95201 174.017 9.80175C175.289 10.6515 176.2 11.8052 176.753 13.2698L174.335 14.2301C173.983 13.2145 173.361 12.4201 172.477 11.8398C171.593 11.2663 170.577 10.9762 169.423 10.9762C167.807 10.9762 166.515 11.522 165.541 12.6204C164.567 13.7189 164.083 15.1904 164.083 17.0487C164.083 17.9537 164.207 18.7758 164.463 19.522C164.719 20.2612 165.085 20.8898 165.555 21.4149C166.031 21.933 166.591 22.3406 167.247 22.6239C167.896 22.914 168.622 23.0522 169.416 23.0522C170.542 23.0522 171.551 22.762 172.435 22.1886C173.32 21.6152 173.962 20.8277 174.356 19.8328L176.746 20.7586C176.124 22.2853 175.164 23.4529 173.858 24.275C172.553 25.0902 171.061 25.5047 169.382 25.5047C168.166 25.5047 167.061 25.2974 166.066 24.8898C165.071 24.4822 164.228 23.9088 163.53 23.1627C162.833 22.4235 162.294 21.5323 161.907 20.4961C161.52 19.4598 161.327 18.3061 161.327 17.0487C161.327 15.7914 161.52 14.6308 161.907 13.5807C162.294 12.5306 162.839 11.6325 163.551 10.8795C164.263 10.1265 165.112 9.54614 166.107 9.13854C167.102 8.73094 168.207 8.52369 169.423 8.52369Z" fill="white"/>
<path d="M194.294 18.2439H181.264C181.396 19.8605 181.941 21.0764 182.909 21.9054C183.869 22.7344 185.057 23.1489 186.473 23.1489C187.62 23.1489 188.615 22.8795 189.444 22.3337C190.273 21.7879 190.909 21.0487 191.351 20.0954L193.637 21.0556C192.995 22.4719 192.048 23.5634 190.784 24.3372C189.52 25.1109 188.062 25.4978 186.404 25.4978C185.257 25.4978 184.2 25.2974 183.24 24.9037C182.28 24.503 181.458 23.9365 180.767 23.1973C180.083 22.4581 179.551 21.5669 179.178 20.5306C178.805 19.4943 178.612 18.3406 178.612 17.0833C178.612 15.8259 178.798 14.6999 179.178 13.6498C179.551 12.5997 180.083 11.6947 180.767 10.9278C181.451 10.1679 182.28 9.57378 183.254 9.15236C184.228 8.73094 185.313 8.52369 186.501 8.52369C187.689 8.52369 188.732 8.72403 189.686 9.11782C190.639 9.51851 191.454 10.085 192.138 10.8242C192.822 11.5634 193.354 12.4615 193.727 13.5116C194.1 14.5617 194.294 15.7292 194.294 17.0073V18.2439ZM191.475 16.2197C191.406 14.4719 190.929 13.1385 190.031 12.2266C189.133 11.3078 187.945 10.8518 186.466 10.8518C184.988 10.8518 183.779 11.3147 182.853 12.2474C181.928 13.1731 181.396 14.4995 181.264 16.2266H191.475V16.2197Z" fill="white"/>
<path d="M59.3576 15.4598C59.2195 11.5979 56.0485 8.50294 52.1452 8.50294C48.2419 8.50294 45.0709 11.5979 44.9328 15.4598V25.2145H47.71V15.5979C47.71 13.0763 49.6996 11.0314 52.1521 11.0314C54.6046 11.0314 56.5943 13.0763 56.5943 15.5979V25.2145H59.3576V15.4598Z" fill="white"/>
<path d="M159.102 15.4598C158.964 11.5979 155.793 8.50294 151.89 8.50294C147.986 8.50294 144.815 11.5979 144.677 15.4598V25.2145H147.454V15.5979C147.454 13.0763 149.444 11.0314 151.896 11.0314C154.349 11.0314 156.339 13.0763 156.339 15.5979V25.2145H159.102V15.4598Z" fill="white"/>
</g>
<defs>
<clipPath id="clip0_10002_634">
<rect width="195" height="32" fill="white"/>
</clipPath>
</defs>
</svg>
