<svg width="16" height="12" viewBox="0 0 16 12" fill="none" xmlns="http://www.w3.org/2000/svg">
<path d="M15.8406 2.63943C15.8406 2.63943 15.6844 1.5363 15.2031 1.05193C14.5937 0.414429 13.9125 0.411304 13.6 0.373804C11.3625 0.211304 8.00313 0.211304 8.00313 0.211304H7.99687C7.99687 0.211304 4.6375 0.211304 2.4 0.373804C2.0875 0.411304 1.40625 0.414429 0.796875 1.05193C0.315625 1.5363 0.1625 2.63943 0.1625 2.63943C0.1625 2.63943 0 3.9363 0 5.23005V6.44255C0 7.7363 0.159375 9.03318 0.159375 9.03318C0.159375 9.03318 0.315625 10.1363 0.79375 10.6207C1.40312 11.2582 2.20312 11.2363 2.55938 11.3051C3.84062 11.4269 8 11.4644 8 11.4644C8 11.4644 11.3625 11.4582 13.6 11.2988C13.9125 11.2613 14.5937 11.2582 15.2031 10.6207C15.6844 10.1363 15.8406 9.03318 15.8406 9.03318C15.8406 9.03318 16 7.73943 16 6.44255V5.23005C16 3.9363 15.8406 2.63943 15.8406 2.63943ZM6.34688 7.91443V3.41755L10.6687 5.6738L6.34688 7.91443Z" fill="white"/>
</svg>
