<svg width="16" height="14" viewBox="0 0 16 14" fill="none" xmlns="http://www.w3.org/2000/svg">
<path d="M5.03344 13.3394C11.0697 13.3394 14.3722 8.33722 14.3722 4.00066C14.3722 3.86003 14.3691 3.71628 14.3628 3.57566C15.0052 3.11106 15.5597 2.53559 16 1.87628C15.4017 2.14248 14.7664 2.31634 14.1159 2.39191C14.8009 1.98136 15.3137 1.3364 15.5594 0.576594C14.915 0.958455 14.2104 1.22782 13.4756 1.37316C12.9806 0.847124 12.326 0.498827 11.6131 0.382117C10.9003 0.265407 10.1688 0.386783 9.53183 0.727481C8.89486 1.06818 8.38787 1.60922 8.08923 2.26696C7.7906 2.92469 7.71695 3.66249 7.87969 4.36628C6.57499 4.30081 5.29862 3.96189 4.13332 3.37148C2.96802 2.78108 1.9398 1.95237 1.11531 0.939094C0.696266 1.66158 0.568038 2.51651 0.756687 3.33014C0.945337 4.14377 1.43671 4.85505 2.13094 5.31941C1.60975 5.30286 1.09998 5.16254 0.64375 4.91003V4.95066C0.643283 5.70885 0.905398 6.44381 1.38554 7.0306C1.86568 7.61738 2.53422 8.01979 3.2775 8.16941C2.7947 8.3015 2.28799 8.32075 1.79656 8.22566C2.0063 8.87771 2.41438 9.44801 2.96385 9.85697C3.51331 10.2659 4.17675 10.4931 4.86156 10.5069C3.69895 11.4202 2.26278 11.9155 0.784375 11.9132C0.522191 11.9128 0.260266 11.8967 0 11.865C1.5019 12.8286 3.24902 13.3403 5.03344 13.3394Z" fill="white"/>
</svg>
