<svg width="17" height="17" viewBox="0 0 17 17" fill="none" xmlns="http://www.w3.org/2000/svg">
<path fill-rule="evenodd" clip-rule="evenodd" d="M6.243 6.41462H9.2142V7.89462C9.6422 7.04342 10.7398 6.27862 12.3886 6.27862C15.5494 6.27862 16.2998 7.97302 16.2998 11.0818V16.8394H13.0998V11.7898C13.0998 10.0194 12.6718 9.02102 11.5822 9.02102C10.071 9.02102 9.443 10.097 9.443 11.789V16.8394H6.243V6.41462ZM0.755805 16.7034H3.9558V6.27862H0.755805V16.7034ZM4.4142 2.87942C4.41432 3.14764 4.36113 3.4132 4.25771 3.66069C4.1543 3.90817 4.00273 4.13263 3.8118 4.32102C3.42492 4.70552 2.90125 4.92074 2.3558 4.91942C1.81132 4.91905 1.28885 4.70438 0.901405 4.32182C0.711174 4.13279 0.560113 3.90808 0.45688 3.66056C0.353646 3.41305 0.300268 3.1476 0.299805 2.87942C0.299805 2.33782 0.515805 1.81942 0.902205 1.43702C1.28931 1.05394 1.812 0.839177 2.3566 0.839417C2.9022 0.839417 3.4254 1.05462 3.8118 1.43702C4.1974 1.81942 4.4142 2.33782 4.4142 2.87942Z" fill="white"/>
</svg>
