<svg width="17" height="15" viewBox="0 0 17 15" fill="none" xmlns="http://www.w3.org/2000/svg">
<path fill-rule="evenodd" clip-rule="evenodd" d="M1.91535 6.69734C6.2103 4.82609 9.07428 3.59245 10.5073 2.99642C14.5988 1.29462 15.449 0.999001 16.0031 0.98924C16.125 0.987093 16.3975 1.0173 16.574 1.16053C16.723 1.28147 16.7641 1.44485 16.7837 1.55952C16.8033 1.67418 16.8277 1.9354 16.8083 2.13951C16.5866 4.46914 15.6272 10.1225 15.1391 12.7318C14.9326 13.8358 14.526 14.206 14.1323 14.2422C13.2767 14.321 12.627 13.6768 11.7984 13.1336C10.5017 12.2836 9.76912 11.7545 8.51046 10.925C7.05585 9.96648 7.99881 9.43964 8.82779 8.57863C9.04473 8.3533 12.8144 4.9245 12.8874 4.61346C12.8965 4.57455 12.905 4.42955 12.8188 4.35298C12.7327 4.27641 12.6055 4.30259 12.5138 4.32342C12.3837 4.35293 10.3122 5.72211 6.29932 8.43094C5.71134 8.83469 5.17876 9.03141 4.70159 9.02111C4.17555 9.00974 3.16365 8.72367 2.41141 8.47915C1.48876 8.17923 0.755451 8.02066 0.819306 7.51131C0.852565 7.24601 1.21791 6.97468 1.91535 6.69734Z" fill="white"/>
</svg>
