<svg width="17" height="17" viewBox="0 0 17 17" fill="none" xmlns="http://www.w3.org/2000/svg">
<g clip-path="url(#clip0_10002_659)">
<path fill-rule="evenodd" clip-rule="evenodd" d="M0.699707 1.23853H1.89971C5.61274 1.23853 9.17369 2.71352 11.7992 5.33903C14.4247 7.96454 15.8997 11.5255 15.8997 15.2385V16.4385H13.4997V15.2385C13.4997 12.162 12.2776 9.21151 10.1021 7.03609C7.92672 4.86066 4.97622 3.63853 1.89971 3.63853H0.699707V1.23853ZM0.699707 6.83852H1.89971C4.12753 6.83852 6.2641 7.72352 7.8394 9.29883C9.41471 10.8741 10.2997 13.0107 10.2997 15.2385V16.4385H7.89971V15.2385C7.89971 13.6472 7.26757 12.1211 6.14235 10.9959C5.01713 9.87067 3.49101 9.23852 1.89971 9.23852H0.699707V6.83852Z" fill="white"/>
<path d="M2.69971 16.4386C3.80428 16.4386 4.69971 15.5432 4.69971 14.4386C4.69971 13.334 3.80428 12.4386 2.69971 12.4386C1.59514 12.4386 0.699707 13.334 0.699707 14.4386C0.699707 15.5432 1.59514 16.4386 2.69971 16.4386Z" fill="white"/>
</g>
<defs>
<clipPath id="clip0_10002_659">
<rect width="16" height="16" fill="white" transform="translate(0.299805 0.839417)"/>
</clipPath>
</defs>
</svg>
