<svg width="16" height="16" viewBox="0 0 16 16" fill="none" xmlns="http://www.w3.org/2000/svg">
<path fill-rule="evenodd" clip-rule="evenodd" d="M0.699707 0.238525H1.89971C5.61274 0.238525 9.17369 1.71352 11.7992 4.33903C14.4247 6.96454 15.8997 10.5255 15.8997 14.2385V15.4385H13.4997V14.2385C13.4997 11.162 12.2776 8.21151 10.1021 6.03609C7.92672 3.86066 4.97622 2.63853 1.89971 2.63853H0.699707V0.238525ZM0.699707 5.83852H1.89971C4.12753 5.83852 6.2641 6.72352 7.8394 8.29883C9.41471 9.87413 10.2997 12.0107 10.2997 14.2385V15.4385H7.89971V14.2385C7.89971 12.6472 7.26757 11.1211 6.14235 9.99588C5.01713 8.87067 3.49101 8.23852 1.89971 8.23852H0.699707V5.83852Z" fill="white"/>
</svg>
